<svg width="174" height="40" viewBox="0 0 174 40" fill="none" xmlns="http://www.w3.org/2000/svg">
<path d="M4.18553 33.1036C3.40852 33.1036 2.69186 33.3676 2.11853 33.8052C3.1294 35.8948 4.82676 37.5921 6.91639 38.603C7.35393 38.0297 7.61796 37.313 7.61796 36.536C7.61042 34.635 6.07903 33.1036 4.18553 33.1036Z" fill="#FF520E"/>
<path d="M11.3824 19.0495C9.685 19.0495 8.07817 19.4644 6.66748 20.1961C7.91975 27.242 13.472 32.7943 20.5179 34.0466C21.2497 32.6359 21.6646 31.029 21.6646 29.3317C21.6646 23.6587 17.0553 19.0495 11.3824 19.0495Z" fill="#CA2174"/>
<path d="M2.1185 33.7976C1.29623 34.4238 0.76062 35.412 0.76062 36.5285C0.76062 38.422 2.29201 39.9534 4.18551 39.9534C5.30199 39.9534 6.29023 39.4178 6.91636 38.5955C4.82673 37.5846 3.12937 35.8873 2.1185 33.7976Z" fill="#FE9B00"/>
<path d="M6.66743 20.1961C3.36324 21.9086 1.1001 25.3561 1.1001 29.3317C1.1001 30.931 1.46974 32.4473 2.11851 33.7976C2.69184 33.3601 3.4085 33.096 4.18551 33.096C6.07901 33.096 7.6104 34.6274 7.6104 36.5209C7.6104 37.2979 7.34637 38.0146 6.90883 38.5879C8.25917 39.2442 9.77547 39.6063 11.3748 39.6063C15.3503 39.6063 18.7979 37.3432 20.5103 34.039C13.4719 32.8018 7.9197 27.242 6.66743 20.1961Z" fill="#EC151F"/>
<path d="M23.5279 0.0466423C14.0604 0.0466423 6.39587 7.71869 6.39587 17.1786C6.39587 18.2046 6.49395 19.2154 6.66745 20.1961C8.07814 19.4644 9.68497 19.0495 11.3823 19.0495C17.0628 19.0495 21.6645 23.6512 21.6645 29.3317C21.6645 31.029 21.2496 32.6359 20.5179 34.0466C21.4986 34.2201 22.5019 34.3181 23.5354 34.3181C32.9953 34.3181 40.6674 26.6461 40.6674 17.1862C40.6674 7.71869 32.9953 0.0466423 23.5279 0.0466423Z" fill="#283DB2"/>
<path d="M49.7201 8.00001H54.2477L58.4216 24.6956L62.5602 8.00001H65.7967L69.8468 24.6956L74.0561 8.00001H78.5837L71.5977 31.8939H68.0782L64.205 16.0825L60.2256 31.8939H56.6884L49.7201 8.00001Z" fill="black"/>
<path d="M79.6272 13.9602H83.6066V15.5343C85.1806 13.9956 86.6132 13.3766 88.5056 13.3766C90.6279 13.3766 92.8033 14.42 94.059 16.0118C95.1732 17.4797 95.5977 19.1422 95.5977 22.2019V31.8939H91.3V23.0508C91.3 19.3368 90.1327 17.5328 87.6744 17.5328C86.5071 17.5328 85.2514 18.1872 84.6677 19.1245C84.1195 19.9735 83.9426 21.0169 83.9426 23.3338V31.8762H79.6449V13.9602H79.6272Z" fill="black"/>
<path d="M117.033 31.8939H113.089V29.7185C111.727 31.381 109.269 32.4952 107.058 32.4952C102.159 32.4952 98.1444 28.1975 98.1444 22.9624C98.1444 17.7096 102.23 13.3766 107.147 13.3766C109.163 13.3766 111.356 14.2255 112.718 15.5696V8.00001H117.015V31.8939H117.033ZM102.424 22.8032C102.424 25.8629 104.777 28.3213 107.713 28.3213C110.684 28.3213 113.036 25.916 113.036 22.9094C113.036 19.9735 110.631 17.5682 107.66 17.5682C104.9 17.5505 102.424 20.0619 102.424 22.8032Z" fill="black"/>
<path d="M119.934 13.9602H123.878V15.552C125.045 13.9248 126.035 13.3589 127.786 13.3589H128.105V17.5328C125.434 17.6389 124.196 19.0007 124.196 21.8128V31.8939H119.916V13.9602H119.934Z" fill="black"/>
<path d="M152.918 25.2439C151.149 29.4532 146.692 32.3891 142.023 32.3891C135.108 32.3891 129.396 26.7826 129.396 19.9912C129.396 13.1113 134.914 7.5048 141.687 7.5048C146.746 7.5048 151.043 10.2815 153.077 14.8091H148.019C146.233 12.8814 144.075 11.9086 141.723 11.9086C137.39 11.9086 133.835 15.5343 133.835 19.9735C133.835 24.2712 137.513 28.0029 141.829 28.0029C144.075 28.0029 145.773 27.2247 147.807 25.2616H152.918V25.2439Z" fill="black"/>
<path d="M173.239 22.9624C173.239 28.2505 168.959 32.4952 163.689 32.4952C158.401 32.4952 154.174 28.1621 154.174 22.7679C154.174 17.7097 158.578 13.3766 163.671 13.3766C169.065 13.3766 173.239 17.5505 173.239 22.9624ZM158.507 22.9624C158.507 25.9337 160.824 28.3036 163.689 28.3036C166.696 28.3036 168.977 26.0221 168.977 22.9624C168.977 19.9558 166.625 17.5505 163.689 17.5505C160.877 17.5505 158.507 20.0265 158.507 22.9624Z" fill="black"/>
</svg>
